<svg width="19" height="12" viewBox="0 0 19 12" fill="none" xmlns="http://www.w3.org/2000/svg">
<path d="M7.94888 1.65658C8.3115 1.31663 8.32987 0.747074 7.98992 0.384453C7.64996 0.021832 7.08041 0.00345927 6.71779 0.343417L7.94888 1.65658ZM2 6L1.38445 5.34342L0.684097 6L1.38445 6.65658L2 6ZM6.71779 11.6566C7.08041 11.9965 7.64996 11.9782 7.98992 11.6155C8.32987 11.2529 8.3115 10.6834 7.94888 10.3434L6.71779 11.6566ZM18 6.9C18.4971 6.9 18.9 6.49706 18.9 6C18.9 5.50294 18.4971 5.1 18 5.1V6.9ZM6.71779 0.343417L1.38445 5.34342L2.61555 6.65658L7.94888 1.65658L6.71779 0.343417ZM1.38445 6.65658L6.71779 11.6566L7.94888 10.3434L2.61555 5.34342L1.38445 6.65658ZM2 6.9L18 6.9V5.1L2 5.1L2 6.9Z" fill="#2F2F2F"/>
</svg>
