<svg width="336" height="190" viewBox="0 0 336 190" fill="none" xmlns="http://www.w3.org/2000/svg">
<path d="M89.2495 10.615H90.1845C92.5645 10.615 94.8595 10.87 97.1545 11.465C98.0895 11.72 99.0245 12.06 99.7895 12.57C100.64 13.08 100.98 13.675 100.98 14.355C100.98 14.695 100.895 15.035 100.81 15.46C100.555 16.055 100.215 16.65 99.8745 17.16C99.0245 18.35 98.1745 19.455 97.0695 20.39C95.1145 22.175 92.9895 23.79 90.7795 25.32C81.4295 31.61 71.3145 36.455 60.7745 40.45C55.4195 42.405 50.0645 44.19 44.2845 44.36C44.0295 44.36 43.6895 44.36 43.6045 44.7C43.6045 45.04 43.7745 45.21 43.9445 45.38C44.3695 45.635 44.7945 45.805 45.2195 45.805C46.0695 45.805 47.0045 45.805 47.8545 45.635C51.5095 45.21 55.0795 44.275 58.5645 43.085C67.5745 40.025 76.1595 36.115 84.4045 31.525C88.7395 29.06 92.9895 26.51 96.8995 23.28C98.5145 21.92 100.13 20.39 101.405 18.605C102.255 17.415 102.595 16.055 102.595 14.865C102.595 12.485 101.235 10.36 98.9395 9.33999C97.7495 8.745 96.4745 8.32 95.1995 8.065C93.0745 7.64 90.9495 7.555 88.8245 7.555C86.6995 7.555 84.5745 7.64 82.4495 7.895C75.0545 8.745 67.8295 10.53 60.7745 12.825C50.8295 15.97 41.3095 20.135 32.0445 25.065C24.9045 28.89 18.0195 33.14 11.7295 38.155C9.00951 40.28 6.45951 42.49 4.24951 45.125C3.05951 46.485 1.95451 47.93 1.18951 49.63C0.764512 50.65 0.594512 51.585 0.594512 52.435C0.594512 53.965 1.27451 55.41 2.71951 56.77C4.33451 58.385 6.37451 59.235 8.49951 59.915C11.8145 60.935 15.2145 61.53 18.6145 62.04C25.4145 63.06 32.2145 63.825 38.9295 65.015C43.0095 65.695 47.0895 66.545 51.0845 67.905C52.4445 68.5 53.8045 69.095 55.0795 70.03C56.0995 70.795 56.5245 71.56 56.5245 72.495C56.5245 73.09 56.3545 73.685 56.0145 74.45C55.4195 75.555 54.5695 76.49 53.6345 77.425C51.1695 79.635 48.3645 81.335 45.4745 82.95C40.5445 85.67 35.2745 87.795 30.0045 89.58C24.8195 91.28 19.6345 92.725 14.2795 93.49C13.2595 93.66 12.3245 93.66 11.3045 93.66C10.5395 93.66 9.68951 93.66 8.92451 93.575C8.07451 93.49 7.64951 93.15 7.64951 92.64C7.64951 92.3 7.73451 91.96 8.07451 91.535C8.32951 91.195 8.58451 90.94 8.83951 90.685C9.68951 89.835 10.7095 89.24 11.7295 88.73C14.3645 87.285 17.1695 86.095 19.9745 85.16C25.9245 83.12 31.7045 80.91 38.0795 80.91C38.4195 80.91 38.7595 80.91 38.7595 80.485V80.4C38.7595 80.145 38.5045 79.975 38.2495 79.805C37.6545 79.55 36.9745 79.465 36.3795 79.465C36.0395 79.465 35.7845 79.55 35.4445 79.55C34.0845 79.72 32.7245 79.89 31.3645 80.145C24.7345 81.42 18.3595 83.63 12.1545 86.18C10.7095 86.775 9.34951 87.37 8.15951 88.305C7.22451 88.9 6.45951 89.665 5.94951 90.6C5.77951 91.025 5.60951 91.45 5.60951 91.875C5.60951 92.47 5.86451 93.065 6.28951 93.575C7.13951 94.68 8.32951 95.105 9.60451 95.36C10.4545 95.53 11.3045 95.615 12.0695 95.615C14.0245 95.615 15.9795 95.275 17.8495 94.935C25.7545 93.49 33.3195 91.11 40.7145 88.05C45.1345 86.265 49.2995 84.225 53.2095 81.505C54.9945 80.23 56.6095 78.785 57.7995 76.915C58.4795 75.81 58.8195 74.79 58.8195 73.685C58.8195 72.75 58.5645 71.73 57.9695 70.795C56.9495 69.095 55.5045 67.82 53.8045 66.97C50.9145 65.44 47.7695 64.505 44.6245 63.825C36.4645 61.955 28.2195 61.02 19.9745 59.745C16.2345 59.235 12.4945 58.64 8.83951 57.705C7.47951 57.28 6.11951 56.855 4.84451 56.175C3.65451 55.495 3.14451 54.56 3.14451 53.37C3.14451 53.115 3.14451 52.775 3.22951 52.435C3.39951 51.5 3.82451 50.565 4.24951 49.715C5.26951 47.93 6.62951 46.4 8.07451 44.955C11.4745 41.47 15.2995 38.58 19.2945 35.86C26.6895 30.845 34.4245 26.595 42.5845 22.94C51.9345 18.605 61.6245 15.12 71.7395 12.825C77.4345 11.55 83.2995 10.615 89.2495 10.615ZM82.1905 38.835C82.7855 38.75 83.2955 38.58 83.8055 38.325C85.9305 37.135 88.1405 35.945 90.1805 34.5C90.4355 34.33 90.6905 34.075 90.9455 33.82C91.2005 33.565 91.2855 33.31 91.2855 33.14C91.2855 32.885 91.2005 32.63 90.8605 32.375C90.5205 32.035 90.1805 31.865 89.8405 31.865C89.5855 31.865 89.3305 31.95 88.9905 32.12C88.4805 32.46 87.9705 32.715 87.4605 32.97C85.0805 34.075 82.7005 35.095 80.1505 35.775C79.4705 35.945 79.1305 36.2 79.1305 36.625C79.1305 36.88 79.3005 37.135 79.6405 37.475C80.3205 38.24 81.1705 38.75 82.1905 38.835ZM61.9605 62.295C62.0455 62.21 62.2155 62.21 62.3005 62.21C62.6405 62.125 63.0655 62.125 63.3205 61.955C67.7405 60.425 71.4805 58.045 74.2005 54.22C74.7105 53.625 75.1355 53.285 75.9855 53.2C79.0455 53.115 82.1055 52.86 85.2505 52.69L88.0555 52.435C88.3955 52.435 88.7355 52.435 88.7355 52.01V51.925C88.7355 51.5 88.3955 51.33 87.9705 51.33H87.6305C86.3555 51.33 84.9955 51.33 83.7205 51.415C81.2555 51.67 78.7055 51.5 76.1555 51.755H75.9005C75.5605 51.755 75.3055 51.585 75.1355 50.99C74.7955 49.035 73.7755 48.185 71.9905 48.185C71.6505 48.185 71.3105 48.185 70.9705 48.27C70.8005 48.27 70.5455 48.355 70.3755 48.355C70.1205 48.355 69.9505 48.27 69.6955 48.185C69.2705 47.845 68.9305 47.675 68.5055 47.675C67.9105 47.675 67.3155 48.1 66.7205 48.61C64.1705 50.82 61.9605 53.37 60.3455 56.345C59.8355 57.195 59.4105 58.13 59.2405 59.15V59.575C59.2405 61.105 60.4305 62.295 61.9605 62.295ZM72.3305 53.37V53.54C72.3305 53.965 72.1605 54.05 71.9055 54.305C69.4405 57.195 66.2105 59.15 62.6405 60.34C62.3855 60.425 62.0455 60.595 61.7905 60.595C61.6205 60.595 61.4505 60.51 61.3655 60.425C61.1955 60.255 61.1955 60.17 61.1955 60C61.1955 59.745 61.4505 59.405 61.5355 59.15C62.3855 57.45 63.5755 56.005 64.8505 54.645C65.6155 53.71 66.5505 52.86 67.4005 52.01C67.5705 51.84 67.7405 51.67 67.9955 51.67C68.0805 51.67 68.2505 51.67 68.3355 51.84C69.3555 52.945 70.7155 53.115 72.0755 53.285C72.1605 53.285 72.2455 53.37 72.3305 53.37ZM72.2455 51.755V51.84C71.4805 51.755 70.7155 51.67 70.0355 51.5C69.6955 51.415 69.5255 51.245 69.5255 51.075C69.5255 50.905 69.6105 50.82 69.7805 50.65C70.4605 49.97 71.3105 49.8 72.2455 49.8H72.7555C73.3505 49.885 73.6905 50.14 73.6905 50.735C73.6905 51.33 73.3505 51.67 72.7555 51.755H72.2455ZM74.0305 37.645C73.2655 37.645 72.6705 38.07 72.0755 38.495C70.4605 39.77 68.8455 41.13 67.3155 42.575C67.1455 42.745 66.9755 42.915 66.8055 43.17C66.7205 43.255 66.6355 43.425 66.6355 43.595C66.6355 43.765 66.7205 43.935 66.8055 44.105C67.1455 44.615 67.6555 44.87 68.2505 44.87C68.4205 44.87 68.6755 44.785 68.9305 44.7C69.3555 44.445 69.7805 44.105 70.2055 43.85C71.4805 42.915 72.5855 41.895 73.8605 41.13C74.3705 40.79 74.7105 40.62 74.9655 40.62C75.3055 40.62 75.5605 40.875 76.0705 41.385C77.2605 42.49 78.3655 43.595 79.5555 44.615C79.8105 44.87 80.0655 45.21 80.4055 45.21C80.4905 45.21 80.6605 45.125 80.7455 45.04C80.9155 44.87 81.0005 44.785 81.0005 44.615C81.0005 44.36 80.6605 44.105 80.4905 43.85C79.4705 42.575 78.4505 41.3 77.3455 40.025C76.8355 39.43 76.2405 38.835 75.7305 38.325C75.2205 37.9 74.6255 37.645 74.0305 37.645ZM128.976 90.685C130.081 88.815 131.186 87.2 132.376 85.67C139.516 76.065 147.421 67.055 155.411 58.13C162.041 50.735 168.756 43.595 175.641 36.54C179.466 32.715 183.206 28.805 187.201 25.065C191.706 20.815 196.296 16.565 200.716 12.06C201.566 11.21 202.416 10.275 203.096 9.255C203.521 8.745 203.861 8.14999 204.116 7.555C204.286 7.045 204.371 6.61999 204.371 6.11C204.371 4.41 203.096 3.135 201.056 3.135C199.526 3.135 198.166 3.47499 196.721 3.9C187.711 6.535 179.296 10.53 171.391 15.46C168.161 17.5 165.101 19.795 162.381 22.515C161.531 23.365 160.766 24.3 160.256 25.405C160.086 25.745 160.001 26.17 160.001 26.51C160.001 27.19 160.256 27.87 160.851 28.295C161.021 28.38 161.191 28.465 161.276 28.465C161.446 28.465 161.616 28.295 161.616 28.04V27.785C161.616 26.935 162.126 26.255 162.636 25.745C164.166 23.96 166.036 22.43 167.906 21.07C173.771 16.48 180.231 12.91 187.116 9.935C190.261 8.57499 193.491 7.215 196.806 6.365C198.166 6.025 199.441 5.685 200.886 5.685H201.226C201.481 5.685 201.736 5.685 201.821 5.94V6.11C201.821 6.365 201.651 6.535 201.481 6.79C201.311 7.045 201.141 7.215 200.971 7.38499C199.696 9 198.166 10.445 196.806 11.89C191.876 16.82 186.776 21.58 181.931 26.595C175.131 33.565 168.416 40.62 161.871 47.76C154.391 56.005 147.081 64.335 140.026 72.92C135.521 78.445 131.016 84.055 127.191 90.175C126.681 91.025 126.001 91.195 125.236 91.28C122.261 91.535 119.371 91.96 116.481 92.385C114.781 92.725 113.081 92.98 111.466 93.66C110.616 94 109.766 94.425 109.171 95.19C108.831 95.615 108.661 96.125 108.661 96.55C108.661 97.06 108.831 97.485 109.256 97.825C109.511 97.995 109.681 98.08 109.851 98.08C110.106 98.08 110.276 97.91 110.446 97.57C110.786 96.72 111.381 96.38 112.146 96.04C112.911 95.615 113.761 95.445 114.526 95.19C117.586 94.425 120.646 93.915 123.706 93.49C123.961 93.405 124.216 93.32 124.556 93.32C124.726 93.32 124.896 93.405 125.066 93.575C125.151 93.66 125.151 93.745 125.151 93.83C125.151 94.17 124.896 94.51 124.811 94.765C124.471 95.7 124.216 96.55 124.046 97.485V97.74C124.046 98.165 124.216 98.505 124.726 98.675H124.896C125.321 98.675 125.406 98.165 125.491 97.825C125.746 96.635 126.256 95.53 126.681 94.425C127.191 93.32 127.956 92.895 129.146 92.81C131.016 92.725 132.886 92.555 134.756 92.47C136.626 92.3 138.411 92.215 140.196 92.215C142.746 92.215 145.296 92.385 147.846 92.81C148.866 92.98 149.801 93.235 150.736 93.49C150.906 93.49 150.991 93.575 151.161 93.575C151.331 93.575 151.501 93.49 151.586 93.235V93.065C151.586 92.895 151.416 92.64 151.246 92.47C150.906 92.13 150.481 92.045 150.056 91.875C147.846 91.28 145.636 90.94 143.341 90.77C141.386 90.6 139.431 90.515 137.391 90.515C135.691 90.515 133.906 90.6 132.206 90.77C131.696 90.77 131.186 90.855 130.676 90.855C130.166 90.855 129.571 90.77 128.976 90.685ZM198.947 36.625C199.032 36.71 199.117 36.71 199.117 36.795L196.822 39.345C191.467 44.87 186.197 50.565 181.012 56.26C175.487 62.21 170.132 68.245 164.947 74.535C163.502 76.235 162.142 78.02 160.867 79.805C160.442 80.485 160.102 81.08 159.762 81.845C159.762 82.015 159.677 82.1 159.677 82.27C159.677 82.525 159.762 82.695 160.017 82.865C160.102 82.95 160.187 82.95 160.272 82.95C160.612 82.95 160.782 82.61 160.952 82.355C161.632 81.08 162.567 79.805 163.502 78.615C167.922 73.005 172.682 67.65 177.527 62.295C182.542 56.855 187.557 51.415 192.742 46.06C196.907 41.725 201.157 37.305 205.492 33.055C209.657 29.145 213.737 25.15 217.987 21.24C221.982 17.5 226.062 13.93 230.142 10.36C232.692 8.14999 235.242 5.855 237.792 3.645C238.047 3.39 238.387 3.04999 238.642 2.62499C238.812 2.455 238.812 2.2 238.812 2.03C238.812 1.775 238.642 1.435 238.472 1.18C238.302 1.01 238.132 0.924997 237.962 0.924997C237.707 0.924997 237.452 1.09499 237.282 1.265C237.027 1.435 236.772 1.605 236.602 1.775C234.647 3.47499 232.607 5.175 230.652 6.875C226.317 10.7 222.067 14.61 217.732 18.435C209.487 25.66 201.242 32.885 192.827 39.94C189.767 42.49 186.622 45.04 183.477 47.675C183.222 47.93 182.882 48.015 182.627 48.015C182.372 48.015 182.117 47.93 181.862 47.76C181.097 47.335 180.332 47.08 179.567 47.08C179.227 47.08 178.972 47.08 178.632 47.165C177.612 47.335 176.677 47.59 175.742 48.1C172.342 50.055 169.537 52.69 167.412 56.005C167.072 56.515 166.817 57.195 166.647 57.79C166.647 57.96 166.562 58.13 166.562 58.3C166.562 59.49 167.412 60.34 168.602 60.34C168.772 60.34 168.942 60.255 169.112 60.255C169.622 60.17 170.047 59.915 170.472 59.66C171.237 59.15 172.002 58.725 172.767 58.13C174.722 56.685 176.677 55.155 178.547 53.625C180.502 52.095 182.457 50.65 184.327 49.035C186.877 46.825 189.427 44.7 191.977 42.575C194.272 40.62 196.652 38.58 198.947 36.625ZM180.757 49.375H181.012C177.357 52.52 173.532 55.58 169.282 58.13C170.302 54.73 177.442 49.375 180.757 49.375ZM199.67 62.295C199.755 62.21 199.925 62.21 200.01 62.21C200.35 62.125 200.775 62.125 201.03 61.955C205.45 60.425 209.19 58.045 211.91 54.22C212.42 53.625 212.845 53.285 213.695 53.2C216.755 53.115 219.815 52.86 222.96 52.69L225.765 52.435C226.105 52.435 226.445 52.435 226.445 52.01V51.925C226.445 51.5 226.105 51.33 225.68 51.33H225.34C224.065 51.33 222.705 51.33 221.43 51.415C218.965 51.67 216.415 51.5 213.865 51.755H213.61C213.27 51.755 213.015 51.585 212.845 50.99C212.505 49.035 211.485 48.185 209.7 48.185C209.36 48.185 209.02 48.185 208.68 48.27C208.51 48.27 208.255 48.355 208.085 48.355C207.83 48.355 207.66 48.27 207.405 48.185C206.98 47.845 206.64 47.675 206.215 47.675C205.62 47.675 205.025 48.1 204.43 48.61C201.88 50.82 199.67 53.37 198.055 56.345C197.545 57.195 197.12 58.13 196.95 59.15V59.575C196.95 61.105 198.14 62.295 199.67 62.295ZM210.04 53.37V53.54C210.04 53.965 209.87 54.05 209.615 54.305C207.15 57.195 203.92 59.15 200.35 60.34C200.095 60.425 199.755 60.595 199.5 60.595C199.33 60.595 199.16 60.51 199.075 60.425C198.905 60.255 198.905 60.17 198.905 60C198.905 59.745 199.16 59.405 199.245 59.15C200.095 57.45 201.285 56.005 202.56 54.645C203.325 53.71 204.26 52.86 205.11 52.01C205.28 51.84 205.45 51.67 205.705 51.67C205.79 51.67 205.96 51.67 206.045 51.84C207.065 52.945 208.425 53.115 209.785 53.285C209.87 53.285 209.955 53.37 210.04 53.37ZM209.955 51.755V51.84C209.19 51.755 208.425 51.67 207.745 51.5C207.405 51.415 207.235 51.245 207.235 51.075C207.235 50.905 207.32 50.82 207.49 50.65C208.17 49.97 209.02 49.8 209.955 49.8H210.465C211.06 49.885 211.4 50.14 211.4 50.735C211.4 51.33 211.06 51.67 210.465 51.755H209.955ZM277.483 6.79H277.313C276.293 6.79 275.188 7.215 274.083 7.64C271.618 8.66 269.323 10.02 267.028 11.465C259.038 16.565 251.898 22.77 245.098 29.315C241.018 33.225 237.193 37.39 233.368 41.555C233.028 41.98 232.603 42.49 231.923 42.66C231.668 42.745 231.413 42.83 231.413 43.17C231.413 44.105 230.733 44.615 230.138 45.295C224.103 52.265 218.323 59.405 212.628 66.715C207.953 72.58 203.448 78.615 199.368 84.905C198.433 86.265 197.668 87.71 196.988 89.155C196.733 89.665 196.563 90.175 196.563 90.685C196.563 91.11 196.733 91.365 197.073 91.535H197.243C197.583 91.535 197.753 91.28 197.838 90.94C198.688 88.305 200.303 86.095 201.833 83.885C211.268 70.71 221.553 58.215 232.348 46.06C233.708 44.53 235.238 43.595 237.193 42.915C245.353 40.365 252.663 36.03 259.718 31.27C264.138 28.295 268.303 24.98 272.213 21.325C274.678 19.115 276.973 16.65 278.843 13.845C279.523 12.825 280.203 11.72 280.458 10.445C280.543 10.19 280.543 9.935 280.543 9.68C280.543 8.065 279.353 6.79 277.483 6.79ZM236.938 41.3C237.023 41.13 237.023 40.96 237.108 40.875C245.523 32.205 254.278 24.045 264.053 16.99C267.453 14.525 270.938 12.23 274.678 10.36C275.698 9.935 276.633 9.51 277.653 9.255C277.823 9.17 278.078 9.17 278.248 9.17C278.418 9.17 278.588 9.17 278.673 9.33999C278.758 9.425 278.758 9.51 278.758 9.595C278.758 9.765 278.673 10.02 278.588 10.19C278.078 11.55 277.398 12.74 276.548 13.93C273.998 17.415 270.853 20.475 267.538 23.365C258.698 30.76 248.838 36.54 238.213 40.875C237.788 41.045 237.448 41.3 236.938 41.3ZM278.997 58.3H278.827C278.827 57.62 279.082 57.11 279.337 56.515C280.272 54.475 281.377 52.435 282.482 50.48C282.652 50.055 282.907 49.63 282.992 49.12V48.95C282.992 48.355 282.482 47.76 281.887 47.505C281.717 47.42 281.547 47.42 281.377 47.42C281.037 47.42 280.782 47.59 280.442 48.1C278.827 50.905 277.382 53.88 276.617 57.11C276.532 57.45 276.447 57.875 276.447 58.215C276.447 58.47 276.447 58.725 276.532 58.98C276.702 60 277.552 60.68 278.487 60.68C278.742 60.68 279.082 60.595 279.422 60.425C279.762 60.17 280.187 59.915 280.527 59.66C281.802 58.555 283.077 57.365 284.437 56.26C286.987 54.05 289.537 51.755 292.172 49.545C292.512 49.205 292.767 49.035 292.937 49.035C293.192 49.035 293.277 49.29 293.532 49.885C294.212 51.585 295.487 52.52 297.272 52.86C298.377 53.03 299.397 53.115 300.502 53.115C301.352 53.115 302.202 53.03 303.052 53.03C303.477 53.03 303.987 52.86 304.412 52.775C304.752 52.605 305.177 52.52 305.177 52.18V52.01C305.092 51.585 304.837 51.5 304.497 51.5H304.072C303.732 51.585 303.392 51.585 303.052 51.67C302.372 51.84 301.692 51.84 301.012 51.84C299.737 51.84 298.462 51.67 297.272 51.5C295.742 51.245 294.977 50.31 294.722 48.865C294.552 47.675 294.127 47.165 293.447 47.165C293.022 47.165 292.512 47.335 291.917 47.76C290.897 48.525 289.792 49.375 288.772 50.225C285.882 52.69 282.907 55.155 280.017 57.705C279.677 57.96 279.507 58.3 278.997 58.3ZM312.478 52.775C312.563 52.86 312.563 52.945 312.648 53.03C312.053 53.88 311.458 54.815 311.118 55.75C310.948 56.09 310.948 56.43 310.948 56.77C310.948 57.62 311.458 58.3 312.393 58.725C312.818 58.895 313.243 58.98 313.668 58.98H314.093C315.623 58.81 317.153 58.3 318.598 57.79C323.698 56.005 328.883 54.22 334.068 52.435C334.323 52.35 334.578 52.265 334.748 52.095C334.918 52.01 335.088 51.925 335.088 51.755V51.585C335.088 51.33 334.918 51.245 334.663 51.16C334.578 51.075 334.408 51.075 334.323 51.075C334.068 51.075 333.813 51.16 333.558 51.245L327.948 53.03C323.613 54.39 319.363 55.92 314.943 57.025C314.518 57.11 314.008 57.365 313.668 57.365C313.498 57.365 313.328 57.28 313.243 57.11C313.158 56.94 313.073 56.855 313.073 56.685C313.073 56.175 313.583 55.75 313.838 55.325C314.943 53.71 316.303 52.18 317.663 50.82L319.703 48.78C319.958 48.525 320.043 48.27 320.043 48.015C320.043 47.76 319.958 47.59 319.788 47.335C319.448 46.91 319.108 46.74 318.853 46.74C318.598 46.74 318.343 46.825 318.088 46.995C316.728 47.93 315.368 48.78 314.093 49.715C313.753 49.97 313.498 50.055 313.243 50.055C312.988 50.055 312.733 49.97 312.478 49.715C311.543 48.865 310.523 48.525 309.503 48.525C308.483 48.525 307.548 48.865 306.528 49.375C304.658 50.48 303.213 51.925 302.108 53.71C301.853 54.05 301.683 54.305 301.598 54.645C301.513 54.9 301.428 55.155 301.428 55.41C301.428 56.43 302.193 57.195 303.298 57.195H303.638C304.318 57.11 304.913 56.855 305.508 56.6C307.123 55.665 308.738 54.815 310.438 53.88C311.118 53.54 311.798 53.115 312.478 52.775ZM304.318 55.155C306.273 52.775 308.993 51.075 310.693 51.075C310.863 51.075 311.118 51.075 311.288 51.16C310.608 52.01 306.953 54.05 304.318 55.155ZM317.323 44.445C318.343 44.36 319.193 43.85 319.873 43.085C320.213 42.745 320.383 42.49 320.383 42.235C320.383 41.81 320.043 41.555 319.363 41.385C316.813 40.705 314.433 39.685 312.053 38.58C311.543 38.325 311.033 38.07 310.523 37.73C310.183 37.56 309.928 37.475 309.673 37.475C309.333 37.475 308.993 37.645 308.653 37.985C308.313 38.24 308.228 38.495 308.228 38.75C308.228 38.92 308.313 39.175 308.568 39.43C308.823 39.685 309.078 39.94 309.333 40.11C311.373 41.555 313.583 42.745 315.708 43.935C316.218 44.19 316.728 44.36 317.323 44.445ZM39.2695 146.35H39.6945C39.6095 146.945 39.2695 147.2 39.0995 147.455C29.1545 160.545 19.2095 173.635 9.26451 186.64C9.00951 187.065 8.75451 187.405 8.49951 187.745C8.41451 187.915 8.41451 188.085 8.41451 188.17C8.41451 188.425 8.58451 188.68 8.83951 188.85C9.09451 189.02 9.26451 189.02 9.43451 189.02C9.85951 189.02 10.1995 188.765 10.5395 188.425C12.2395 186.64 13.9395 184.855 15.7245 183.07C21.6745 176.865 27.4545 170.49 32.9795 163.86C37.3145 158.59 41.5645 153.15 45.0495 147.2C45.6445 146.095 46.4945 145.585 47.6845 145.5C52.8695 145.16 58.1395 144.735 63.3245 144.48C67.3195 144.31 71.3145 144.14 75.3095 144.14C76.9245 144.14 78.4545 144.14 79.9845 144.225C81.7695 144.225 83.6395 144.48 85.4245 144.65C86.6145 144.735 87.8045 144.99 88.9945 145.16C89.0795 145.16 89.1645 145.245 89.2495 145.245C89.4195 145.245 89.5895 145.16 89.6745 144.905V144.65C89.6745 144.48 89.5895 144.31 89.3345 144.14C88.9945 143.885 88.6545 143.8 88.2295 143.715C84.5745 142.95 80.8345 142.695 77.0945 142.695H71.3995C68.5095 142.695 65.6195 142.695 62.7295 142.865C58.0545 143.12 53.3795 143.375 48.7045 143.715H47.7695C47.4295 143.715 47.2595 143.63 47.2595 143.46C47.2595 143.375 47.2595 143.29 47.3445 143.205C48.1945 141.505 48.6195 139.635 49.8945 138.105C54.0595 133.005 58.3945 127.905 62.6445 122.89C66.6395 118.3 70.8045 113.88 74.5445 109.035C74.7145 108.865 74.7995 108.525 75.0545 108.44C76.1595 108.015 76.3295 106.995 76.3295 106.06V105.89C76.3295 105.38 76.6695 105.295 77.0945 105.295C78.6245 105.295 80.0695 105.295 81.5995 105.21C87.3795 104.87 93.2445 104.955 99.0245 104.785C102.34 104.785 105.655 104.7 108.885 104.7C112.965 104.7 117.045 104.785 121.125 104.955C123.25 105.125 125.375 105.21 127.5 105.55L129.54 106.06C129.625 106.06 129.71 106.145 129.88 106.145C130.05 106.145 130.22 106.06 130.305 105.89C130.39 105.805 130.39 105.72 130.39 105.635C130.39 105.38 130.22 105.21 130.05 105.04C129.71 104.785 129.285 104.7 128.86 104.53C126.82 103.935 124.78 103.765 122.655 103.595C118.405 103.17 114.155 103.255 109.905 103.085H105.145C101.32 103.085 97.4095 103.085 93.5845 103.17C85.1695 103.34 76.7545 103.425 68.4245 103.765C64.3445 103.935 60.3495 104.02 56.2695 104.105H55.5895C51.3395 104.445 47.0045 104.53 42.7545 104.785C39.6095 105.04 36.4645 105.21 33.3195 105.465C29.2395 105.805 25.2445 106.23 21.1645 106.655C16.6595 107.25 12.1545 107.845 7.73451 108.61C6.20451 108.95 4.67451 109.205 3.22951 109.8C2.63451 110.055 2.29451 110.48 2.29451 110.905C2.29451 111.245 2.46451 111.585 2.80451 111.925C3.05951 112.35 3.48451 112.605 3.99451 112.69C4.50451 112.86 5.09951 112.945 5.69451 113.03C10.8795 113.625 15.9795 113.965 21.1645 114.56C25.6695 115.155 30.0895 115.835 34.5095 117.025C37.7395 117.96 40.8845 119.065 43.7745 120.935C47.3445 123.145 49.2995 126.29 49.2995 130.285C49.2995 130.71 49.2145 131.135 49.2145 131.56C49.1295 133.09 49.1295 134.62 48.1095 135.895C46.0695 138.445 44.1145 140.995 42.1595 143.545C41.7345 144.055 41.3095 144.31 40.6295 144.31C39.3545 144.31 37.9945 144.48 36.7195 144.65C32.6395 144.99 28.6445 145.5 24.6495 145.84C19.3795 146.35 14.1945 147.2 9.00951 148.305C6.71451 148.9 4.50451 149.41 2.29451 150.26C1.61451 150.6 0.934512 150.855 0.509512 151.45C0.254512 151.705 0.169512 152.045 0.169512 152.385C0.169512 152.81 0.339512 153.235 0.764512 153.49C0.934512 153.575 1.10451 153.66 1.27451 153.66C1.35951 153.66 1.44451 153.66 1.52951 153.49C2.29451 152.215 3.56951 152.13 4.75951 151.875C9.77451 150.685 14.8745 149.665 19.9745 148.815C25.4995 147.88 31.0245 147.2 36.6345 146.605C37.3995 146.52 38.3345 146.35 39.2695 146.35ZM73.0145 105.805C65.6195 114.56 58.2245 123.315 50.8295 132.155C50.7445 131.985 50.7445 131.9 50.7445 131.73V130.965C50.7445 126.545 48.7895 123.145 45.4745 120.51C42.4145 118.13 38.8445 116.685 35.1895 115.665C30.4295 114.22 25.5845 113.455 20.5695 112.86C16.0645 112.265 11.5595 112.01 6.96951 111.33C28.8145 107.675 50.8295 106.315 72.8445 105.465C72.9295 105.55 72.9295 105.72 73.0145 105.805ZM43.3495 146.265C41.2245 151.365 25.4145 171.34 20.5695 175.165C28.0495 165.39 35.6145 155.7 43.3495 146.265ZM104.128 146.775C104.213 146.86 104.213 146.945 104.298 147.03C103.703 147.88 103.108 148.815 102.768 149.75C102.598 150.09 102.598 150.43 102.598 150.77C102.598 151.62 103.108 152.3 104.043 152.725C104.468 152.895 104.893 152.98 105.318 152.98H105.743C107.273 152.81 108.803 152.3 110.248 151.79C115.348 150.005 120.533 148.22 125.718 146.435C125.973 146.35 126.228 146.265 126.398 146.095C126.568 146.01 126.738 145.925 126.738 145.755V145.585C126.738 145.33 126.568 145.245 126.313 145.16C126.228 145.075 126.058 145.075 125.973 145.075C125.718 145.075 125.463 145.16 125.208 145.245L119.598 147.03C115.263 148.39 111.013 149.92 106.593 151.025C106.168 151.11 105.658 151.365 105.318 151.365C105.148 151.365 104.978 151.28 104.893 151.11C104.808 150.94 104.723 150.855 104.723 150.685C104.723 150.175 105.233 149.75 105.488 149.325C106.593 147.71 107.953 146.18 109.313 144.82L111.353 142.78C111.608 142.525 111.693 142.27 111.693 142.015C111.693 141.76 111.608 141.59 111.438 141.335C111.098 140.91 110.758 140.74 110.503 140.74C110.248 140.74 109.993 140.825 109.738 140.995C108.378 141.93 107.018 142.78 105.743 143.715C105.403 143.97 105.148 144.055 104.893 144.055C104.638 144.055 104.383 143.97 104.128 143.715C103.193 142.865 102.173 142.525 101.153 142.525C100.133 142.525 99.1985 142.865 98.1785 143.375C96.3085 144.48 94.8635 145.925 93.7585 147.71C93.5035 148.05 93.3335 148.305 93.2485 148.645C93.1635 148.9 93.0785 149.155 93.0785 149.41C93.0785 150.43 93.8435 151.195 94.9485 151.195H95.2885C95.9685 151.11 96.5635 150.855 97.1585 150.6C98.7735 149.665 100.388 148.815 102.088 147.88C102.768 147.54 103.448 147.115 104.128 146.775ZM95.9685 149.155C97.9235 146.775 100.643 145.075 102.343 145.075C102.513 145.075 102.768 145.075 102.938 145.16C102.258 146.01 98.6035 148.05 95.9685 149.155ZM140.299 144.14C139.449 145.415 138.769 146.435 138.174 147.54C137.834 148.05 137.494 148.645 137.409 149.24C137.324 149.495 137.324 149.75 137.324 150.005C137.324 151.195 138.089 152.045 139.364 152.045C139.534 152.045 139.789 151.96 139.959 151.96C140.724 151.79 141.489 151.535 142.254 151.195C146.164 149.75 149.989 148.22 153.984 146.945L154.749 146.69C155.004 146.605 155.174 146.52 155.174 146.265V146.095C155.174 145.755 154.919 145.585 154.579 145.5C154.154 145.5 153.729 145.67 153.304 145.755C149.479 146.775 145.739 148.22 141.999 149.41C141.489 149.58 141.064 149.75 140.639 149.835C140.384 149.92 140.044 150.09 139.789 150.09C139.704 150.09 139.534 150.005 139.449 149.92C139.364 149.835 139.364 149.75 139.364 149.58C139.364 149.325 139.619 148.985 139.789 148.73C140.384 147.88 141.064 147.03 141.659 146.095C141.999 145.585 142.339 145.075 142.594 144.565C142.764 144.225 142.849 143.97 142.849 143.715C142.849 143.29 142.679 142.95 142.339 142.525C141.999 142.1 141.574 141.93 141.149 141.93C140.894 141.93 140.724 141.93 140.469 142.015C139.534 142.27 138.599 142.695 137.749 143.12C133.669 145.16 129.759 147.455 125.764 149.835C125.594 150.005 125.339 150.09 125.084 150.09H124.829C124.999 149.75 125.339 149.58 125.594 149.325L131.714 143.205C132.139 142.695 132.394 142.355 132.394 141.93C132.394 141.505 132.054 141.08 131.459 140.655C131.204 140.485 130.949 140.315 130.694 140.315C130.354 140.315 129.929 140.57 129.419 141.165C126.699 143.97 123.979 146.86 121.599 150.09C121.259 150.6 120.834 151.195 120.664 151.79C120.579 152.045 120.494 152.215 120.494 152.47C120.494 152.725 120.664 153.065 120.919 153.405C121.259 153.66 121.599 153.83 121.939 153.83C122.109 153.83 122.279 153.745 122.534 153.66C122.959 153.49 123.384 153.235 123.809 152.98C128.229 150.26 132.649 147.54 137.409 145.33C138.259 144.905 139.109 144.48 140.299 144.14Z" fill="#6A4887"/>
</svg>
