<svg width="116" height="72" viewBox="0 0 116 72" fill="none" xmlns="http://www.w3.org/2000/svg">
<g filter="url(#filter0_d_2752_46325)">
<path d="M16.8092 27.7754C17.909 22.2767 22.2767 17.909 27.7754 16.8092C33.1703 15.7303 38.8298 15.7303 44.2246 16.8092C49.7233 17.909 54.091 22.2767 55.1908 27.7754C56.2697 33.1703 56.2697 38.8298 55.1908 44.2246C54.091 49.7233 49.7233 54.091 44.2246 55.1908C38.8298 56.2697 33.1703 56.2697 27.7754 55.1908C22.2767 54.091 17.909 49.7233 16.8092 44.2246C15.7303 38.8298 15.7303 33.1703 16.8092 27.7754Z" fill="#863F38"/>
</g>
<path d="M36.0008 42.8746C35.8124 42.8746 35.6338 42.8045 35.485 42.6643L24.2266 31.7493C24.0183 31.549 23.9488 31.2486 24.0381 30.9782C24.1175 30.7379 26.0815 25 36.0008 25C45.9202 25 47.8842 30.7279 47.9636 30.9782C48.0529 31.2486 47.9735 31.549 47.7751 31.7493L36.5167 42.6643C36.3679 42.8045 36.1893 42.8746 36.0008 42.8746ZM25.6351 31.0283L35.9909 41.0721L46.3666 31.0283C45.7516 29.8367 43.361 26.5021 36.0008 26.5021C28.6804 26.5021 26.27 29.8467 25.6351 31.0283Z" fill="white" fill-opacity="0.8"/>
<path d="M39.9088 38.8592C37.2802 37.2269 34.721 37.2269 32.0825 38.8592L31.2988 37.5774C34.4135 35.6448 37.5679 35.6448 40.6825 37.5774L39.9088 38.8592Z" fill="white" fill-opacity="0.8"/>
<path d="M44.6292 27.8L43.9229 27.373L38.1649 37.0818L38.8713 37.5088L44.6292 27.8Z" fill="white" fill-opacity="0.8"/>
<path d="M40.9577 26.2734L40.1689 26.0352L36.8672 37.1729L37.6559 37.4111L40.9577 26.2734Z" fill="white" fill-opacity="0.8"/>
<path d="M36.4083 26.1514H35.585V37.2967H36.4083V26.1514Z" fill="white" fill-opacity="0.8"/>
<path d="M35.1289 37.166L31.8271 26.0283L31.0384 26.2666L34.3402 37.4043L35.1289 37.166Z" fill="white" fill-opacity="0.8"/>
<path d="M33.83 37.0719L28.1699 27.5264L27.4635 27.9532L33.1236 37.4988L33.83 37.0719Z" fill="white" fill-opacity="0.8"/>
<path d="M36.0012 47.0001C35.0092 47.0001 34.0173 46.6496 33.0452 45.9587C32.7377 45.7384 32.6385 45.3278 32.8171 44.9873L34.8108 41.2422L36.0012 41.8831L37.1915 41.2422L39.1853 44.9873C39.3638 45.3178 39.2646 45.7384 38.9571 45.9587C37.985 46.6596 36.9931 47.0001 36.0012 47.0001ZM34.4637 45.0875C35.5052 45.6482 36.5071 45.6482 37.5387 45.0875L36.0012 42.1835L34.4637 45.0875Z" fill="white" fill-opacity="0.8"/>
<defs>
<filter id="filter0_d_2752_46325" x="-44" y="-40" width="160" height="160" filterUnits="userSpaceOnUse" color-interpolation-filters="sRGB">
<feFlood flood-opacity="0" result="BackgroundImageFix"/>
<feColorMatrix in="SourceAlpha" type="matrix" values="0 0 0 0 0 0 0 0 0 0 0 0 0 0 0 0 0 0 127 0" result="hardAlpha"/>
<feOffset dy="4"/>
<feGaussianBlur stdDeviation="30"/>
<feComposite in2="hardAlpha" operator="out"/>
<feColorMatrix type="matrix" values="0 0 0 0 0 0 0 0 0 0 0 0 0 0 0 0 0 0 0.1 0"/>
<feBlend mode="normal" in2="BackgroundImageFix" result="effect1_dropShadow_2752_46325"/>
<feBlend mode="normal" in="SourceGraphic" in2="effect1_dropShadow_2752_46325" result="shape"/>
</filter>
</defs>
</svg>
